<svg width="29" height="30" viewBox="0 0 29 30" fill="none" xmlns="http://www.w3.org/2000/svg">
<path fill-rule="evenodd" clip-rule="evenodd" d="M8.70213 1.85128C9.0497 0.519264 10.3831 -0.271215 11.6803 0.0857011L24.9904 3.74778C26.2877 4.10467 27.0576 5.47381 26.7099 6.80582L26.605 7.20782L28.399 7.70146C28.8314 7.8204 29.088 8.27675 28.9722 8.72078L28.2379 11.5345C28.122 11.9786 27.6776 12.2421 27.2451 12.1231L25.4512 11.6295L25.1136 12.9232C25.1464 12.9838 25.1757 13.0469 25.2011 13.1121L25.8968 14.8935C26.0273 15.2277 26.0488 15.5963 25.9581 15.9439L24.9613 19.7638C24.7295 20.6518 23.8406 21.1788 22.9758 20.9409L18.3206 19.6601L19.4948 15.1605C19.6106 14.7166 19.354 14.2602 18.9216 14.1412L11.875 12.2025C11.4427 12.0835 10.9981 12.347 10.8823 12.791L9.70813 17.2905L4.65422 15.9C3.78943 15.6621 3.27617 14.7493 3.50792 13.8613L4.47865 10.1413C4.58524 9.73294 4.83903 9.38155 5.18871 9.15841L7.04654 7.97246C7.06932 7.95798 7.09234 7.94408 7.1156 7.93076L7.44339 6.6749L5.56806 6.15896C5.1357 6.03994 4.87908 5.58359 4.99491 5.13955L5.7292 2.32578C5.84503 1.88178 6.28955 1.61829 6.72199 1.73726L8.59724 2.25321L8.70213 1.85128ZM11.2608 1.69358C10.8283 1.57461 10.3838 1.8381 10.268 2.28211L9.00925 7.10578L23.8853 11.1986L25.144 6.37502C25.2599 5.93099 25.0033 5.47464 24.5709 5.35562L11.2608 1.69358ZM7.51262 14.4489C8.16123 14.6274 8.82793 14.2321 9.00171 13.5661C9.1755 12.9001 8.79056 12.2155 8.14194 12.0371C7.49333 11.8586 6.82663 12.2539 6.65284 12.9199C6.47906 13.5859 6.864 14.2705 7.51262 14.4489ZM23.0948 17.4436C22.9211 18.1096 22.2544 18.5048 21.6057 18.3264C20.9571 18.1479 20.5722 17.4634 20.746 16.7974C20.9198 16.1313 21.5865 15.7361 22.2351 15.9145C22.8837 16.093 23.2686 16.7775 23.0948 17.4436Z" fill="#1000C7"/>
<path d="M7.29513 27.1708C7.29513 26.2879 6.91084 25.4411 6.2268 24.8167C5.54276 24.1924 4.61498 23.8416 3.64756 23.8416C2.68017 23.8416 1.75239 24.1924 1.06835 24.8167C0.384299 25.4411 0 26.2879 0 27.1708V28.8354C0 29.295 0.362908 29.6677 0.81057 29.6677H23.1012C23.5489 29.6677 23.9118 29.295 23.9118 28.8354C23.9118 28.3758 23.5489 28.0031 23.1012 28.0031H15.4008C15.4008 27.5616 15.23 27.1382 14.926 26.826C14.6219 26.5139 14.2096 26.3385 13.7797 26.3385C13.3498 26.3385 12.9374 26.5139 12.6334 26.826C12.3293 27.1382 12.1585 27.5616 12.1585 28.0031C12.1585 27.3409 11.9023 26.7058 11.4463 26.2375C10.9903 25.7692 10.3717 25.5062 9.72684 25.5062C9.08195 25.5062 8.4634 25.7692 8.00737 26.2375C7.55135 26.7058 7.29513 27.3409 7.29513 28.0031V27.1708Z" fill="#1000C7"/>
<path d="M9.43895 18.8024L4.74129 17.5099L4.12534 19.87C4.00951 20.314 4.26614 20.7704 4.69857 20.8894L7.83037 21.751C8.26273 21.87 8.70725 21.6065 8.82308 21.1625L9.43895 18.8024Z" fill="#1000C7"/>
<path d="M18.1935 21.2499L22.8911 22.5424L22.2847 24.8663C22.1688 25.3103 21.7244 25.5738 21.292 25.4549L18.1602 24.5932C17.7278 24.4742 17.4712 24.0178 17.587 23.5739L18.1935 21.2499Z" fill="#1000C7"/>
<path d="M11.3992 17.2416L12.2384 14.0258L14.2778 14.5869L13.3642 17.7822L11.3992 17.2416Z" fill="#1000C7"/>
<path d="M14.9305 18.2131L15.8442 15.0179L17.7191 15.5337L16.8799 18.7494L14.9305 18.2131Z" fill="#1000C7"/>
</svg>
