<svg width="25" height="25" viewBox="0 0 25 25" fill="none" xmlns="http://www.w3.org/2000/svg">
<path fill-rule="evenodd" clip-rule="evenodd" d="M24.605 0.113346C24.7257 0.18113 24.8254 0.275786 24.8945 0.388337C24.9636 0.500888 24.9999 0.627605 25 0.756473V23.4551C25 23.6558 24.9122 23.8482 24.7559 23.9901C24.5996 24.132 24.3877 24.2117 24.1667 24.2117H19.1667C18.9457 24.2117 18.7337 24.132 18.5774 23.9901C18.4211 23.8482 18.3333 23.6558 18.3333 23.4551V21.1852H16.6667V23.4551C16.6667 23.6558 16.5789 23.8482 16.4226 23.9901C16.2663 24.132 16.0543 24.2117 15.8333 24.2117H0.833333C0.61232 24.2117 0.400358 24.132 0.244078 23.9901C0.0877974 23.8482 0 23.6558 0 23.4551V15.1323C0.000132745 14.9735 0.0552468 14.8189 0.157542 14.6901C0.259836 14.5614 0.40413 14.4651 0.57 14.415L10 11.561V6.80944C10 6.66904 10.043 6.53141 10.1243 6.41196C10.2055 6.2925 10.3218 6.19592 10.46 6.13302L23.7933 0.0800544C23.9205 0.0222574 24.0619 -0.00502583 24.2039 0.000801484C24.346 0.0066288 24.4841 0.0453728 24.605 0.113346ZM10 13.156L1.66667 15.677V22.6985H10V13.156ZM11.6667 22.6985H15V20.4286C15 20.2279 15.0878 20.0355 15.2441 19.8936C15.4004 19.7517 15.6123 19.672 15.8333 19.672H19.1667C19.3877 19.672 19.5996 19.7517 19.7559 19.8936C19.9122 20.0355 20 20.2279 20 20.4286V22.6985H23.3333V1.98069L11.6667 7.27703V22.6985Z" fill="#1000C7"/>
<path d="M3.33337 16.6457H5.00004V18.1589H3.33337V16.6457ZM6.66671 16.6457H8.33337V18.1589H6.66671V16.6457ZM3.33337 19.6722H5.00004V21.1854H3.33337V19.6722ZM6.66671 19.6722H8.33337V21.1854H6.66671V19.6722ZM13.3334 13.6192H15V15.1325H13.3334V13.6192ZM16.6667 13.6192H18.3334V15.1325H16.6667V13.6192ZM13.3334 16.6457H15V18.1589H13.3334V16.6457ZM16.6667 16.6457H18.3334V18.1589H16.6667V16.6457ZM20 13.6192H21.6667V15.1325H20V13.6192ZM20 16.6457H21.6667V18.1589H20V16.6457ZM13.3334 10.5927H15V12.106H13.3334V10.5927ZM16.6667 10.5927H18.3334V12.106H16.6667V10.5927ZM20 10.5927H21.6667V12.106H20V10.5927ZM13.3334 7.56625H15V9.07949H13.3334V7.56625ZM16.6667 7.56625H18.3334V9.07949H16.6667V7.56625ZM20 7.56625H21.6667V9.07949H20V7.56625ZM20 4.53976H21.6667V6.05301H20V4.53976Z" fill="#1000C7"/>
</svg>
