<svg width="19" height="23" viewBox="0 0 19 23" fill="none" xmlns="http://www.w3.org/2000/svg">
<path d="M9.5 2.3C8.3802 2.3 7.30626 2.78464 6.51444 3.64731C5.72262 4.50998 5.27778 5.68 5.27778 6.9C5.27778 8.12 5.72262 9.29002 6.51444 10.1527C7.30626 11.0154 8.3802 11.5 9.5 11.5C10.6198 11.5 11.6937 11.0154 12.4856 10.1527C13.2774 9.29002 13.7222 8.12 13.7222 6.9C13.7222 5.68 13.2774 4.50998 12.4856 3.64731C11.6937 2.78464 10.6198 2.3 9.5 2.3ZM3.16667 6.9C3.16667 5.07001 3.83393 3.31496 5.02166 2.02096C6.20939 0.726962 7.8203 0 9.5 0C11.1797 0 12.7906 0.726962 13.9783 2.02096C15.1661 3.31496 15.8333 5.07001 15.8333 6.9C15.8333 8.72999 15.1661 10.485 13.9783 11.779C12.7906 13.073 11.1797 13.8 9.5 13.8C7.8203 13.8 6.20939 13.073 5.02166 11.779C3.83393 10.485 3.16667 8.72999 3.16667 6.9ZM5.27778 18.4C4.43793 18.4 3.63247 18.7635 3.03861 19.4105C2.44474 20.0575 2.11111 20.935 2.11111 21.85C2.11111 22.155 1.9999 22.4475 1.80195 22.6632C1.60399 22.8788 1.33551 23 1.05556 23C0.775605 23 0.50712 22.8788 0.309165 22.6632C0.11121 22.4475 0 22.155 0 21.85C0 20.325 0.55605 18.8625 1.54583 17.7841C2.5356 16.7058 3.87802 16.1 5.27778 16.1H13.7222C15.122 16.1 16.4644 16.7058 17.4542 17.7841C18.444 18.8625 19 20.325 19 21.85C19 22.155 18.8888 22.4475 18.6908 22.6632C18.4929 22.8788 18.2244 23 17.9444 23C17.6645 23 17.396 22.8788 17.1981 22.6632C17.0001 22.4475 16.8889 22.155 16.8889 21.85C16.8889 20.935 16.5553 20.0575 15.9614 19.4105C15.3675 18.7635 14.5621 18.4 13.7222 18.4H5.27778Z" fill="#0D0D0D"/>
</svg>
